# xmcd
# Copyright (C) 1995-1998 Ti Kan
#
# Track frame offsets:
#       150
#       17344
#       36905
#       56280
#
# Disc length: 982 seconds
#
# Revision: 0
# Processed by: cddbd v1.5.2PL0 Copyright (c) Steve Scherf et al.
# Submitted via: CD-Transfer v1.0
#
DISCID=2303d404
DTITLE=Ascet - Point De Repère
DYEAR=05
DGENRE=
TTITLE0=Point De Repère
TTITLE1=Fiers Et Tranquilles
TTITLE2=Here I M Coming Again
TTITLE3=Electro
EXTD=
EXTT0=
EXTT1=
EXTT2=
EXTT3=
PLAYORDER=
